<?xml version="1.0" standalone="no"?>
<!DOCTYPE svg PUBLIC "-//W3C//DTD SVG 20010904//EN"
 "http://www.w3.org/TR/2001/REC-SVG-20010904/DTD/svg10.dtd">
<svg version="1.0" xmlns="http://www.w3.org/2000/svg"
 width="256.000000pt" height="256.000000pt" viewBox="0 0 256.000000 256.000000"
 preserveAspectRatio="xMidYMid meet">
<metadata>
Created by potrace 1.14, written by Peter Selinger 2001-2017
</metadata>
<g transform="translate(0.000000,256.000000) scale(0.100000,-0.100000)"
fill="#000000" stroke="none">
<path d="M1047 2543 c-29 -6 -53 -11 -55 -11 -41 -2 -162 -43 -162 -55 0 -6
12 -21 27 -33 20 -16 27 -31 28 -60 3 -59 16 -233 20 -268 2 -17 7 -76 10
-131 4 -55 8 -122 10 -150 6 -86 15 -188 20 -227 l5 -36 -104 5 c-118 6 -111
8 -376 -104 -411 -174 -445 -196 -456 -296 -13 -120 9 -174 112 -274 41 -40
81 -73 89 -73 7 0 15 -4 17 -8 6 -15 163 -90 246 -118 78 -26 82 -29 83 -58 6
-148 6 -482 -1 -509 -10 -45 3 -65 54 -86 76 -33 182 -45 386 -45 280 1 420
29 665 134 93 40 249 123 333 178 22 14 22 51 1 156 -87 443 -69 580 106 791
72 86 73 89 72 141 -1 30 0 55 3 55 3 1 18 3 35 5 41 4 189 52 208 67 21 16
32 141 53 587 4 80 8 165 9 190 2 25 4 55 4 68 1 12 6 22 11 22 13 0 60 49 60
62 0 20 -74 38 -177 43 -59 2 -118 7 -130 9 -25 5 -137 15 -233 21 -36 2 -114
7 -175 11 -197 12 -742 10 -798 -3z"/>
</g>
</svg>
